<svg width="100" height="114" viewBox="0 0 100 114" fill="none" xmlns="http://www.w3.org/2000/svg">
<path d="M100 56.9837C100 50.3592 91.704 44.0812 78.9849 40.188C81.9201 27.2243 80.6156 16.9104 74.8675 13.6083C73.5426 12.8337 71.9935 12.4668 70.3017 12.4668V17.0123C71.2393 17.0123 71.9935 17.1957 72.6254 17.5422C75.3975 19.1321 76.6001 25.1859 75.6625 32.9723C75.4382 34.8883 75.0713 36.9063 74.6229 38.965C70.6278 37.9866 66.2658 37.2324 61.6796 36.7432C58.9278 32.9723 56.0742 29.5479 53.2002 26.5516C59.8451 20.3755 66.0824 16.9919 70.3221 16.9919V12.4464C64.7167 12.4464 57.3787 16.4416 49.9592 23.3718C42.5397 16.4823 35.2018 12.528 29.5964 12.528V17.0734C33.8157 17.0734 40.0734 20.4367 46.7183 26.572C43.8647 29.5683 41.011 32.9723 38.3 36.7432C33.6934 37.2324 29.3314 37.9866 25.3363 38.9854C24.8675 36.9471 24.521 34.9699 24.2764 33.0742C23.3184 25.2879 24.5006 19.234 27.2523 17.6238C27.8638 17.2569 28.6588 17.0938 29.5964 17.0938V12.5484C27.8842 12.5484 26.3351 12.9153 24.9898 13.6898C19.2621 16.9919 17.978 27.2854 20.9335 40.2084C8.2552 44.1219 0 50.3796 0 56.9837C0 63.6083 8.29596 69.8863 21.0151 73.7795C18.0799 86.7432 19.3844 97.0571 25.1325 100.359C26.4574 101.134 28.0065 101.501 29.7187 101.501C35.3241 101.501 42.662 97.5055 50.0815 90.5753C57.501 97.4648 64.839 101.419 70.4444 101.419C72.1565 101.419 73.7057 101.052 75.051 100.278C80.7786 96.9756 82.0628 86.6821 79.1072 73.7591C91.7448 69.8659 100 63.5879 100 56.9837ZM73.4611 43.3881C72.7069 46.0176 71.7693 48.7285 70.7093 51.4395C69.8736 49.8088 68.9971 48.1782 68.0391 46.5475C67.1015 44.9169 66.1027 43.327 65.104 41.7779C67.9984 42.2059 70.7909 42.7359 73.4611 43.3881ZM64.1256 65.0963C62.5357 67.848 60.905 70.457 59.2132 72.8826C56.1761 73.1476 53.0982 73.2903 50 73.2903C46.9221 73.2903 43.8443 73.1476 40.8276 72.903C39.1358 70.4774 37.4847 67.8888 35.8948 65.1574C34.3457 62.4872 32.9393 59.7762 31.6551 57.0449C32.9189 54.3135 34.3457 51.5822 35.8744 48.912C37.4643 46.1603 39.095 43.5512 40.7868 41.1256C43.8239 40.8606 46.9018 40.7179 50 40.7179C53.0779 40.7179 56.1557 40.8606 59.1724 41.1052C60.8642 43.5308 62.5153 46.1195 64.1052 48.8508C65.6543 51.521 67.0607 54.232 68.3449 56.9634C67.0607 59.6947 65.6543 62.4261 64.1256 65.0963ZM70.7093 62.4464C71.81 65.1778 72.7477 67.9091 73.5222 70.559C70.852 71.2112 68.0391 71.7616 65.1243 72.1896C66.1231 70.6201 67.1219 69.0098 68.0595 67.3588C68.9972 65.7281 69.8736 64.0771 70.7093 62.4464ZM50.0408 84.1953C48.1451 82.2385 46.2495 80.0575 44.3742 77.6727C46.2087 77.7542 48.084 77.8154 49.9796 77.8154C51.8956 77.8154 53.7913 77.7746 55.6461 77.6727C53.8117 80.0575 51.916 82.2385 50.0408 84.1953ZM34.8757 72.1896C31.9812 71.7616 29.1887 71.2316 26.5185 70.5793C27.2727 67.9499 28.2104 65.2389 29.2703 62.528C30.106 64.1586 30.9825 65.7893 31.9405 67.4199C32.8985 69.0506 33.8769 70.6405 34.8757 72.1896ZM49.9389 29.7722C51.8345 31.729 53.7301 33.91 55.6054 36.2948C53.7709 36.2133 51.8956 36.1521 50 36.1521C48.084 36.1521 46.1883 36.1929 44.3335 36.2948C46.168 33.91 48.0636 31.729 49.9389 29.7722ZM34.8553 41.7779C33.8565 43.3474 32.8577 44.9577 31.9201 46.6087C30.9825 48.2393 30.106 49.87 29.2703 51.5007C28.1696 48.7693 27.232 46.038 26.4574 43.3881C29.1276 42.7563 31.9405 42.2059 34.8553 41.7779ZM16.4085 67.2976C9.19283 64.2198 4.52507 60.1839 4.52507 56.9837C4.52507 53.7836 9.19283 49.7273 16.4085 46.6698C18.1614 45.9157 20.0775 45.243 22.0546 44.6111C23.2165 48.6062 24.7452 52.7644 26.6408 57.0245C24.7656 61.2642 23.2572 65.402 22.1158 69.3767C20.0978 68.7448 18.1818 68.0518 16.4085 67.2976ZM27.3746 96.4252C24.6025 94.8354 23.3999 88.7815 24.3375 80.9951C24.5618 79.0791 24.9287 77.0612 25.3771 75.0025C29.3722 75.9809 33.7342 76.7351 38.3204 77.2243C41.0722 80.9951 43.9258 84.4195 46.7998 87.4159C40.1549 93.592 33.9177 96.9756 29.6779 96.9756C28.7607 96.9552 27.9861 96.7718 27.3746 96.4252ZM75.7236 80.8932C76.6816 88.6796 75.4994 94.7334 72.7477 96.3437C72.1362 96.7106 71.3412 96.8737 70.4036 96.8737C66.1843 96.8737 59.9266 93.5104 53.2817 87.3751C56.1353 84.3788 58.989 80.9748 61.7 77.2039C66.3066 76.7147 70.6686 75.9605 74.6637 74.9617C75.1325 77.0204 75.4994 78.9976 75.7236 80.8932ZM83.5711 67.2976C81.8182 68.0518 79.9022 68.7245 77.925 69.3563C76.7631 65.3612 75.2344 61.2031 73.3388 56.943C75.214 52.7033 76.7224 48.5655 77.8638 44.5908C79.8818 45.2226 81.7978 45.9157 83.5915 46.6698C90.8072 49.7477 95.4749 53.7836 95.4749 56.9837C95.4545 60.1839 90.7868 64.2402 83.5711 67.2976Z" fill="#61DAFB"/>
<path d="M49.9796 66.2989C55.1242 66.2989 59.2947 62.1283 59.2947 56.9837C59.2947 51.8391 55.1242 47.6686 49.9796 47.6686C44.835 47.6686 40.6645 51.8391 40.6645 56.9837C40.6645 62.1283 44.835 66.2989 49.9796 66.2989Z" fill="#61DAFB"/>
</svg>
